<svg xmlns="http://www.w3.org/2000/svg" xmlns:xlink="http://www.w3.org/1999/xlink" contentStyleType="text/css" data-diagram-type="CLASS" height="703px" preserveAspectRatio="none" style="width:1033px;height:703px;background:#FFFFFF;" version="1.1" viewBox="0 0 1033 703" width="1033px" zoomAndPan="magnify"><defs/><g><!--class MainViewModel--><g class="entity" data-entity="MainViewModel" data-source-line="5" data-uid="ent0002" id="entity_MainViewModel"><rect fill="#F1F1F1" height="259.8594" rx="2.5" ry="2.5" style="stroke:#181818;stroke-width:0.5;" width="419.7363" x="218.36" y="7"/><ellipse cx="369.4855" cy="23" fill="#ADD1B2" rx="11" ry="11" style="stroke:#181818;stroke-width:1;"/><path d="M372.4542,28.6406 Q371.8761,28.9375 371.2355,29.0781 Q370.5949,29.2344 369.8917,29.2344 Q367.3917,29.2344 366.0636,27.5938 Q364.7511,25.9375 364.7511,22.8125 Q364.7511,19.6875 366.0636,18.0313 Q367.3917,16.375 369.8917,16.375 Q370.5949,16.375 371.2355,16.5313 Q371.8917,16.6875 372.4542,16.9844 L372.4542,19.7031 Q371.8292,19.125 371.2355,18.8594 Q370.6417,18.5781 370.0167,18.5781 Q368.673,18.5781 367.9855,19.6563 Q367.298,20.7188 367.298,22.8125 Q367.298,24.9063 367.9855,25.9844 Q368.673,27.0469 370.0167,27.0469 Q370.6417,27.0469 371.2355,26.7813 Q371.8292,26.5 372.4542,25.9219 L372.4542,28.6406 Z " fill="#000000"/><text fill="#000000" font-family="sans-serif" font-size="14" lengthAdjust="spacing" textLength="108.9854" x="389.9855" y="27.8467">MainViewModel</text><line style="stroke:#181818;stroke-width:0.5;" x1="219.36" x2="637.0963" y1="39" y2="39"/><rect fill="none" height="6" style="stroke:#C82930;stroke-width:1;" width="6" x="226.36" y="49.6484"/><text fill="#000000" font-family="sans-serif" font-size="14" lengthAdjust="spacing" textLength="71.5791" x="238.36" y="55.9951">Quiz _quiz</text><rect fill="none" height="6" style="stroke:#C82930;stroke-width:1;" width="6" x="226.36" y="65.9453"/><text fill="#000000" font-family="sans-serif" font-size="14" lengthAdjust="spacing" textLength="182.1641" x="238.36" y="72.292">int _currentQuestionIndex</text><rect fill="none" height="6" style="stroke:#C82930;stroke-width:1;" width="6" x="226.36" y="82.2422"/><text fill="#000000" font-family="sans-serif" font-size="14" lengthAdjust="spacing" textLength="67.6279" x="238.36" y="88.5889">int _score</text><rect fill="none" height="6" style="stroke:#C82930;stroke-width:1;" width="6" x="226.36" y="98.5391"/><text fill="#000000" font-family="sans-serif" font-size="14" lengthAdjust="spacing" textLength="123.0811" x="238.36" y="104.8857">bool _canProceed</text><rect fill="none" height="6" style="stroke:#C82930;stroke-width:1;" width="6" x="226.36" y="114.8359"/><text fill="#000000" font-family="sans-serif" font-size="14" lengthAdjust="spacing" textLength="256.6689" x="238.36" y="121.1826">AnswerViewModel? _selectedAnswer</text><ellipse cx="229.36" cy="134.1328" fill="none" rx="3" ry="3" style="stroke:#038048;stroke-width:1;"/><text fill="#000000" font-family="sans-serif" font-size="14" lengthAdjust="spacing" textLength="84.1572" x="238.36" y="137.4795">string Score</text><ellipse cx="229.36" cy="150.4297" fill="none" rx="3" ry="3" style="stroke:#038048;stroke-width:1;"/><text fill="#000000" font-family="sans-serif" font-size="14" lengthAdjust="spacing" textLength="113.0391" x="238.36" y="153.7764">string? Greeting</text><ellipse cx="229.36" cy="166.7266" fill="none" rx="3" ry="3" style="stroke:#038048;stroke-width:1;"/><text fill="#000000" font-family="sans-serif" font-size="14" lengthAdjust="spacing" textLength="198.7617" x="238.36" y="170.0732">string? CurrentQuestionText</text><ellipse cx="229.36" cy="183.0234" fill="none" rx="3" ry="3" style="stroke:#038048;stroke-width:1;"/><text fill="#000000" font-family="sans-serif" font-size="14" lengthAdjust="spacing" textLength="362.9678" x="238.36" y="186.3701">ObservableCollection&lt;AnswerViewModel&gt; Answers</text><ellipse cx="229.36" cy="199.3203" fill="none" rx="3" ry="3" style="stroke:#038048;stroke-width:1;"/><text fill="#000000" font-family="sans-serif" font-size="14" lengthAdjust="spacing" textLength="248.1582" x="238.36" y="202.667">IRelayCommand ProceedCommand</text><ellipse cx="229.36" cy="215.6172" fill="none" rx="3" ry="3" style="stroke:#038048;stroke-width:1;"/><text fill="#000000" font-family="sans-serif" font-size="14" lengthAdjust="spacing" textLength="393.7363" x="238.36" y="218.9639">IRelayCommand&lt;AnswerViewModel&gt; AnswerCommand</text><ellipse cx="229.36" cy="231.9141" fill="none" rx="3" ry="3" style="stroke:#038048;stroke-width:1;"/><text fill="#000000" font-family="sans-serif" font-size="14" lengthAdjust="spacing" textLength="118.1592" x="238.36" y="235.2607">bool CanProceed</text><line style="stroke:#181818;stroke-width:0.5;" x1="219.36" x2="637.0963" y1="242.5625" y2="242.5625"/><ellipse cx="229.36" cy="256.2109" fill="#84BE84" rx="3" ry="3" style="stroke:#038048;stroke-width:1;"/><text fill="#000000" font-family="sans-serif" font-size="14" lengthAdjust="spacing" textLength="119.9092" x="238.36" y="259.5576">MainViewModel()</text></g><!--class AnswerViewModel--><g class="entity" data-entity="AnswerViewModel" data-source-line="21" data-uid="ent0003" id="entity_AnswerViewModel"><rect fill="#F1F1F1" height="96.8906" rx="2.5" ry="2.5" style="stroke:#181818;stroke-width:0.5;" width="198.4502" x="7" y="376.46"/><ellipse cx="39.695" cy="392.46" fill="#ADD1B2" rx="11" ry="11" style="stroke:#181818;stroke-width:1;"/><path d="M42.6638,398.1006 Q42.0856,398.3975 41.445,398.5381 Q40.8044,398.6944 40.1013,398.6944 Q37.6013,398.6944 36.2731,397.0538 Q34.9606,395.3975 34.9606,392.2725 Q34.9606,389.1475 36.2731,387.4913 Q37.6013,385.835 40.1013,385.835 Q40.8044,385.835 41.445,385.9913 Q42.1013,386.1475 42.6638,386.4444 L42.6638,389.1631 Q42.0388,388.585 41.445,388.3194 Q40.8513,388.0381 40.2263,388.0381 Q38.8825,388.0381 38.195,389.1163 Q37.5075,390.1788 37.5075,392.2725 Q37.5075,394.3663 38.195,395.4444 Q38.8825,396.5069 40.2263,396.5069 Q40.8513,396.5069 41.445,396.2413 Q42.0388,395.96 42.6638,395.3819 L42.6638,398.1006 Z " fill="#000000"/><text fill="#000000" font-family="sans-serif" font-size="14" lengthAdjust="spacing" textLength="127.1279" x="57.6272" y="397.3067">AnswerViewModel</text><line style="stroke:#181818;stroke-width:0.5;" x1="8" x2="204.4502" y1="408.46" y2="408.46"/><ellipse cx="18" cy="422.1084" fill="none" rx="3" ry="3" style="stroke:#038048;stroke-width:1;"/><text fill="#000000" font-family="sans-serif" font-size="14" lengthAdjust="spacing" textLength="83.0088" x="27" y="425.4551">string? Text</text><ellipse cx="18" cy="438.4053" fill="none" rx="3" ry="3" style="stroke:#038048;stroke-width:1;"/><text fill="#000000" font-family="sans-serif" font-size="14" lengthAdjust="spacing" textLength="93.8301" x="27" y="441.752">string? Letter</text><ellipse cx="18" cy="454.7022" fill="none" rx="3" ry="3" style="stroke:#038048;stroke-width:1;"/><text fill="#000000" font-family="sans-serif" font-size="14" lengthAdjust="spacing" textLength="172.4502" x="27" y="458.0489">string? BackgroundColor</text><line style="stroke:#181818;stroke-width:0.5;" x1="8" x2="204.4502" y1="465.3506" y2="465.3506"/></g><!--class Quiz--><g class="entity" data-entity="Quiz" data-source-line="27" data-uid="ent0004" id="entity_Quiz"><rect fill="#F1F1F1" height="162.0781" rx="2.5" ry="2.5" style="stroke:#181818;stroke-width:0.5;" width="374.6738" x="240.89" y="343.86"/><ellipse cx="408.4115" cy="359.86" fill="#ADD1B2" rx="11" ry="11" style="stroke:#181818;stroke-width:1;"/><path d="M411.3802,365.5006 Q410.8021,365.7975 410.1615,365.9381 Q409.5209,366.0944 408.8177,366.0944 Q406.3177,366.0944 404.9896,364.4538 Q403.6771,362.7975 403.6771,359.6725 Q403.6771,356.5475 404.9896,354.8913 Q406.3177,353.235 408.8177,353.235 Q409.5209,353.235 410.1615,353.3913 Q410.8177,353.5475 411.3802,353.8444 L411.3802,356.5631 Q410.7552,355.985 410.1615,355.7194 Q409.5677,355.4381 408.9427,355.4381 Q407.599,355.4381 406.9115,356.5163 Q406.224,357.5788 406.224,359.6725 Q406.224,361.7663 406.9115,362.8444 Q407.599,363.9069 408.9427,363.9069 Q409.5677,363.9069 410.1615,363.6413 Q410.7552,363.36 411.3802,362.7819 L411.3802,365.5006 Z " fill="#000000"/><text fill="#000000" font-family="sans-serif" font-size="14" lengthAdjust="spacing" textLength="31.1309" x="428.9115" y="364.7067">Quiz</text><line style="stroke:#181818;stroke-width:0.5;" x1="241.89" x2="614.5638" y1="375.86" y2="375.86"/><ellipse cx="251.89" cy="389.5084" fill="none" rx="3" ry="3" style="stroke:#038048;stroke-width:1;"/><text fill="#000000" font-family="sans-serif" font-size="14" lengthAdjust="spacing" textLength="117.0723" x="260.89" y="392.8551">string QuizName</text><rect fill="none" height="6" style="stroke:#C82930;stroke-width:1;" width="6" x="248.89" y="402.8053"/><text fill="#000000" font-family="sans-serif" font-size="14" lengthAdjust="spacing" textLength="133.8955" x="260.89" y="409.152">int _QuestionCount</text><rect fill="none" height="6" style="stroke:#C82930;stroke-width:1;" width="6" x="248.89" y="419.1022"/><text fill="#000000" font-family="sans-serif" font-size="14" lengthAdjust="spacing" textLength="140.2119" x="260.89" y="425.4489">int _CorrectAnswers</text><ellipse cx="251.89" cy="438.3991" fill="none" rx="3" ry="3" style="stroke:#038048;stroke-width:1;"/><text fill="#000000" font-family="sans-serif" font-size="14" lengthAdjust="spacing" textLength="184.9121" x="260.89" y="441.7457">List&lt;Question&gt; Questions</text><line style="stroke:#181818;stroke-width:0.5;" x1="241.89" x2="614.5638" y1="449.0475" y2="449.0475"/><ellipse cx="251.89" cy="462.6959" fill="#84BE84" rx="3" ry="3" style="stroke:#038048;stroke-width:1;"/><text fill="#000000" font-family="sans-serif" font-size="14" lengthAdjust="spacing" textLength="348.6738" x="260.89" y="466.0426">Quiz(string quizName, List&lt;Question&gt; questions)</text><ellipse cx="251.89" cy="478.9928" fill="#84BE84" rx="3" ry="3" style="stroke:#038048;stroke-width:1;"/><text fill="#000000" font-family="sans-serif" font-size="14" lengthAdjust="spacing" textLength="127.7363" x="260.89" y="482.3395">void DisplayQuiz()</text><ellipse cx="251.89" cy="495.2897" fill="#84BE84" rx="3" ry="3" style="stroke:#038048;stroke-width:1;"/><text fill="#000000" font-family="sans-serif" font-size="14" lengthAdjust="spacing" textLength="197.7021" x="260.89" y="498.6364">void DisplayQuizWithRetry()</text></g><!--class Question--><g class="entity" data-entity="Question" data-source-line="37" data-uid="ent0005" id="entity_Question"><rect fill="#F1F1F1" height="113.1875" rx="2.5" ry="2.5" style="stroke:#181818;stroke-width:0.5;" width="772.3408" x="246.05" y="582.94"/><ellipse cx="596.6618" cy="598.94" fill="#ADD1B2" rx="11" ry="11" style="stroke:#181818;stroke-width:1;"/><path d="M599.6306,604.5806 Q599.0524,604.8775 598.4118,605.0181 Q597.7712,605.1744 597.0681,605.1744 Q594.5681,605.1744 593.2399,603.5337 Q591.9274,601.8775 591.9274,598.7525 Q591.9274,595.6275 593.2399,593.9712 Q594.5681,592.315 597.0681,592.315 Q597.7712,592.315 598.4118,592.4712 Q599.0681,592.6275 599.6306,592.9244 L599.6306,595.6431 Q599.0056,595.065 598.4118,594.7994 Q597.8181,594.5181 597.1931,594.5181 Q595.8493,594.5181 595.1618,595.5962 Q594.4743,596.6587 594.4743,598.7525 Q594.4743,600.8462 595.1618,601.9244 Q595.8493,602.9869 597.1931,602.9869 Q597.8181,602.9869 598.4118,602.7212 Q599.0056,602.44 599.6306,601.8619 L599.6306,604.5806 Z " fill="#000000"/><text fill="#000000" font-family="sans-serif" font-size="14" lengthAdjust="spacing" textLength="62.6172" x="617.1618" y="603.7867">Question</text><line style="stroke:#181818;stroke-width:0.5;" x1="247.05" x2="1017.3908" y1="614.94" y2="614.94"/><ellipse cx="257.05" cy="628.5884" fill="none" rx="3" ry="3" style="stroke:#038048;stroke-width:1;"/><text fill="#000000" font-family="sans-serif" font-size="14" lengthAdjust="spacing" textLength="138.1953" x="266.05" y="631.9351">string QuestionText</text><ellipse cx="257.05" cy="644.8853" fill="none" rx="3" ry="3" style="stroke:#038048;stroke-width:1;"/><text fill="#000000" font-family="sans-serif" font-size="14" lengthAdjust="spacing" textLength="262.7939" x="266.05" y="648.232">List&lt;Tuple&lt;string, string&gt;&gt; Answers</text><ellipse cx="257.05" cy="661.1822" fill="none" rx="3" ry="3" style="stroke:#038048;stroke-width:1;"/><text fill="#000000" font-family="sans-serif" font-size="14" lengthAdjust="spacing" textLength="259.2188" x="266.05" y="664.5289">Tuple&lt;string, string&gt; CorrectAnswer</text><line style="stroke:#181818;stroke-width:0.5;" x1="247.05" x2="1017.3908" y1="671.8306" y2="671.8306"/><ellipse cx="257.05" cy="685.4791" fill="#84BE84" rx="3" ry="3" style="stroke:#038048;stroke-width:1;"/><text fill="#000000" font-family="sans-serif" font-size="14" lengthAdjust="spacing" textLength="746.3408" x="266.05" y="688.8257">Question(string questionText, List&lt;Tuple&lt;string, string&gt;&gt; answers, Tuple&lt;string, string&gt; correctAnswer)</text></g><!--class QuestionLoader--><g class="entity" data-entity="QuestionLoader" data-source-line="44" data-uid="ent0006" id="entity_QuestionLoader"><rect fill="#F1F1F1" height="64.2969" rx="2.5" ry="2.5" style="stroke:#181818;stroke-width:0.5;" width="375.6035" x="650.42" y="392.75"/><ellipse cx="778.5631" cy="408.75" fill="#ADD1B2" rx="11" ry="11" style="stroke:#181818;stroke-width:1;"/><path d="M781.5318,414.3906 Q780.9537,414.6875 780.3131,414.8281 Q779.6724,414.9844 778.9693,414.9844 Q776.4693,414.9844 775.1412,413.3438 Q773.8287,411.6875 773.8287,408.5625 Q773.8287,405.4375 775.1412,403.7813 Q776.4693,402.125 778.9693,402.125 Q779.6724,402.125 780.3131,402.2813 Q780.9693,402.4375 781.5318,402.7344 L781.5318,405.4531 Q780.9068,404.875 780.3131,404.6094 Q779.7193,404.3281 779.0943,404.3281 Q777.7506,404.3281 777.0631,405.4063 Q776.3756,406.4688 776.3756,408.5625 Q776.3756,410.6563 777.0631,411.7344 Q777.7506,412.7969 779.0943,412.7969 Q779.7193,412.7969 780.3131,412.5313 Q780.9068,412.25 781.5318,411.6719 L781.5318,414.3906 Z " fill="#000000"/><text fill="#000000" font-family="sans-serif" font-size="14" lengthAdjust="spacing" textLength="110.8174" x="799.0631" y="413.5967">QuestionLoader</text><line style="stroke:#181818;stroke-width:0.5;" x1="651.42" x2="1025.0235" y1="424.75" y2="424.75"/><line style="stroke:#181818;stroke-width:0.5;" x1="651.42" x2="1025.0235" y1="432.75" y2="432.75"/><ellipse cx="661.42" cy="446.3984" fill="#84BE84" rx="3" ry="3" style="stroke:#038048;stroke-width:1;"/><text fill="#000000" font-family="sans-serif" font-size="14" lengthAdjust="spacing" textLength="349.6035" x="670.42" y="449.7451">static List&lt;Question&gt; LoadQuestions(Uri filePath)</text></g><!--link MainViewModel to Quiz--><g class="link" data-entity-1="MainViewModel" data-entity-2="Quiz" data-source-line="52" data-uid="lnk7" id="link_MainViewModel_Quiz"><path codeLine="52" d="M428.23,267.11 C428.23,293.17 428.23,313.83 428.23,337.62" fill="none" id="MainViewModel-to-Quiz" style="stroke:#181818;stroke-width:1;"/><polygon fill="#181818" points="428.23,343.62,432.23,334.62,428.23,338.62,424.23,334.62,428.23,343.62" style="stroke:#181818;stroke-width:1;"/><text fill="#000000" font-family="sans-serif" font-size="13" lengthAdjust="spacing" textLength="29.7832" x="429.23" y="309.9269">uses</text></g><!--link MainViewModel to AnswerViewModel--><g class="link" data-entity-1="MainViewModel" data-entity-2="AnswerViewModel" data-source-line="53" data-uid="lnk8" id="link_MainViewModel_AnswerViewModel"><path codeLine="53" d="M282.77,267.11 C239.1,305.89 198.3865,342.0561 164.6465,372.0161" fill="none" id="MainViewModel-to-AnswerViewModel" style="stroke:#181818;stroke-width:1;"/><polygon fill="#181818" points="160.16,376,169.5457,373.0152,163.8988,372.6801,164.2338,367.0332,160.16,376" style="stroke:#181818;stroke-width:1;"/><text fill="#000000" font-family="sans-serif" font-size="13" lengthAdjust="spacing" textLength="55.0278" x="249.23" y="309.9269">contains</text></g><!--link MainViewModel to QuestionLoader--><g class="link" data-entity-1="MainViewModel" data-entity-2="QuestionLoader" data-source-line="54" data-uid="lnk9" id="link_MainViewModel_QuestionLoader"><path codeLine="54" d="M613.73,267.32 C680.1,313.62 744.2984,358.3981 788.0084,388.8781" fill="none" id="MainViewModel-to-QuestionLoader" style="stroke:#181818;stroke-width:1;stroke-dasharray:7.0,7.0;"/><polygon fill="#181818" points="792.93,392.31,787.8356,383.8811,788.8287,389.4501,783.2597,390.4432,792.93,392.31" style="stroke:#181818;stroke-width:1;"/><text fill="#000000" font-family="sans-serif" font-size="13" lengthAdjust="spacing" textLength="139.7183" x="671.23" y="309.9269">calls LoadQuestions()</text></g><!--reverse link Quiz to Question--><g class="link" data-entity-1="Quiz" data-entity-2="Question" data-source-line="55" data-uid="lnk10" id="link_Quiz_Question"><path codeLine="55" d="M513.6579,514.949 C538.0279,540.349 556.11,559.2 578.48,582.51" fill="none" id="Quiz-backto-Question" style="stroke:#181818;stroke-width:1;"/><polygon fill="#181818" points="505.35,506.29,506.6176,513.3888,513.6579,514.949,512.3903,507.8502,505.35,506.29" style="stroke:#181818;stroke-width:1;"/><text fill="#000000" font-family="sans-serif" font-size="13" lengthAdjust="spacing" textLength="55.0278" x="550.23" y="549.0069">contains</text><text fill="#000000" font-family="sans-serif" font-size="13" lengthAdjust="spacing" textLength="6.5" x="565.5952" y="571.7212">*</text></g><!--link QuestionLoader to Question--><g class="link" data-entity-1="QuestionLoader" data-entity-2="Question" data-source-line="56" data-uid="lnk11" id="link_QuestionLoader_Question"><path codeLine="56" d="M807.83,457.28 C775.93,490.2 729.3043,538.3201 690.5343,578.3501" fill="none" id="QuestionLoader-to-Question" style="stroke:#181818;stroke-width:1;stroke-dasharray:7.0,7.0;"/><polygon fill="#181818" points="686.36,582.66,695.4947,578.978,689.8386,579.0684,689.7481,573.4123,686.36,582.66" style="stroke:#181818;stroke-width:1;"/><text fill="#000000" font-family="sans-serif" font-size="13" lengthAdjust="spacing" textLength="48.3247" x="730.23" y="549.0069">creates</text></g><!--SRC=[VLJRRjim37tFLn1zITh5_O0YTR5vG54WtTgksnuBnUOQeOgKI7Hlm_vziYpPikh43uPDdiF3GmgQmlduCvb28PWnQ8392cwqsg8cZiOczb4cPSE0QyRbBuulrwf20NydO9yCRcl-3Wyx-_O1BWaUobfhb7HReo6kv9Miy3NEcr9fz86LKi8ocBJDb8YL3t-MvWLr9tXXIIYm9ApQZ8Dz6dOrE_PHGvhBH_ZHoOJG1LngHB9VIRWOTdoFh-GHtrS6zJDR2IoKQ3gmwKNINUxRDPvpTOU2lHLgi_5JRepvtp78ldf3YfjKqG_gNrXDmlRBwSr5Ra9eYKJT44Fm2okV7hMgfUrLADqBk2qFgxhODxR1UAzXV8MjGN6YK7Qy9GsdjEI65e6IG_WAwKPWviLsNcoUadQ155R_h7W5NxdPskcw2liIlpcjxv3qcqL4Hjjo7yr-E1UkaVjwAt3HWkOUdAUdOHG4Wv5qbbkPtdOlEp-eo5h5-HwnCXORyRjKh48TkMR4otJM3QXRqkodvl272xnXj7OLfmSkdUQmEzgQRm_UDSDR9ilozkoTGMtlh95iUlJFh5L95fQ2Jq_prAt5CY5CukjuuXJX9ClWwEIeFn9HwQHGNBk1QMI4vZy0]--></g></svg>